<?xml version="1.0" encoding="utf-8"?>
<!-- Generator: Adobe Illustrator 21.0.2, SVG Export Plug-In . SVG Version: 6.00 Build 0)  -->
<svg version="1.1" id="Layer_1" xmlns="http://www.w3.org/2000/svg" xmlns:xlink="http://www.w3.org/1999/xlink" x="0px" y="0px"
	 viewBox="0 0 30 30" style="enable-background:new 0 0 30 30;" xml:space="preserve">
<style type="text/css">
	.st0{fill:#3D4656;}
	.st1{fill:none;stroke:#000000;stroke-width:1.3;stroke-miterlimit:10;}
	.st2{fill:none;stroke:#000000;stroke-width:1.5;stroke-miterlimit:10;}
	.st3{fill:none;stroke:#000000;stroke-width:1.5;stroke-linecap:round;stroke-miterlimit:10;}
	.st4{stroke:#000000;stroke-width:0.25;stroke-miterlimit:10;}
	.st5{stroke:#000000;stroke-width:0.5;stroke-miterlimit:10;}
	.st6{fill:#B73476;}
	.st7{fill:#A38696;}
	.st8{fill:none;stroke:#000000;stroke-miterlimit:10;}
	.st9{fill:none;stroke:#000000;stroke-linecap:round;stroke-linejoin:round;stroke-miterlimit:10;}
</style>
<g>
	<path d="M20.3,11.3c-0.5-0.5-1.1-0.7-1.7-0.7s-1.3,0.3-1.7,0.7l-0.2,0.2l-0.2-0.2c-0.5-0.5-1.1-0.7-1.7-0.7s-1.3,0.3-1.7,0.7
		c-1,1-1,2.5,0,3.5l3.3,3.3c0.1,0.1,0.2,0.1,0.3,0.1c0.1,0,0.2,0,0.3-0.1l3.3-3.3C21.3,13.8,21.3,12.3,20.3,11.3z M16.7,17.2l-3-3
		c-0.6-0.6-0.6-1.6,0-2.2c0.3-0.3,0.7-0.5,1.1-0.5c0.4,0,0.8,0.2,1.1,0.5l0.5,0.5c0.2,0.2,0.5,0.2,0.6,0l0.5-0.5
		c0.6-0.6,1.6-0.6,2.2,0c0.6,0.6,0.6,1.6,0,2.2L16.7,17.2z"/>
</g>
<circle class="st8" cx="10.3" cy="25.9" r="2.6"/>
<circle class="st8" cx="24.1" cy="25.9" r="2.6"/>
<polyline class="st9" points="24.1,23.4 10.3,23.4 3.5,3.9 1.1,3.9 "/>
<polyline class="st9" points="5.2,8.9 28.1,8.9 24.9,20 9.1,20 "/>
<circle class="st6" cx="24" cy="8.7" r="5.7"/>
</svg>
