<?xml version="1.0" encoding="utf-8"?>
<!-- Generator: Adobe Illustrator 21.0.2, SVG Export Plug-In . SVG Version: 6.00 Build 0)  -->
<svg version="1.1" id="Layer_1" xmlns="http://www.w3.org/2000/svg" xmlns:xlink="http://www.w3.org/1999/xlink" x="0px" y="0px"
	 viewBox="0 0 30 30" style="enable-background:new 0 0 30 30;" xml:space="preserve">
<style type="text/css">
	.st0{fill:#3D4656;}
	.st1{fill:none;stroke:#000000;stroke-width:1.3;stroke-miterlimit:10;}
	.st2{fill:none;stroke:#000000;stroke-width:1.5;stroke-miterlimit:10;}
	.st3{fill:none;stroke:#000000;stroke-width:1.5;stroke-linecap:round;stroke-miterlimit:10;}
	.st4{stroke:#000000;stroke-width:0.25;stroke-miterlimit:10;}
	.st5{stroke:#000000;stroke-width:0.5;stroke-miterlimit:10;}
</style>
<g>
	<path d="M19.6,14C19,13.4,18.2,13,17.4,13s-1.6,0.3-2.2,0.9L15,14.2L14.8,14c-0.6-0.6-1.4-0.9-2.2-0.9S11,13.4,10.4,14
		c-1.2,1.2-1.2,3.2,0,4.4l4.2,4.2c0.1,0.1,0.3,0.2,0.4,0.2c0.2,0,0.3-0.1,0.4-0.2l4.2-4.2C20.8,17.2,20.8,15.2,19.6,14z M15,21.4
		l-3.8-3.8c-0.8-0.8-0.8-2,0-2.8c0.4-0.4,0.9-0.6,1.4-0.6s1,0.2,1.4,0.6l0.6,0.6c0.2,0.2,0.6,0.2,0.8,0l0.6-0.6
		c0.8-0.8,2.1-0.8,2.8,0c0.8,0.8,0.8,2,0,2.8L15,21.4z M24.7,23.8V7.9c0-0.3-0.3-0.6-0.6-0.6H19V4.5c0-2.2-1.8-4-4-4
		c-2.2,0-4,1.8-4,4v2.8H5.9c-0.3,0-0.6,0.3-0.6,0.6v15.9l-1.1,4.5c0,0.2,0,0.4,0.1,0.5C4.4,28.9,4.6,29,4.7,29h20.5
		c0.2,0,0.3-0.1,0.4-0.2c0.1-0.1,0.1-0.3,0.1-0.5L24.7,23.8z M12.2,4.5c0-1.6,1.3-2.8,2.8-2.8s2.8,1.3,2.8,2.8v2.8h-5.7V4.5z
		 M5.5,27.9l1-3.8c0,0,0-0.1,0-0.1V8.5h17.1v15.4c0,0,0,0.1,0,0.1l1,3.8H5.5z"/>
</g>
</svg>
