<?xml version="1.0" encoding="utf-8"?>
<!-- Generator: Adobe Illustrator 21.0.2, SVG Export Plug-In . SVG Version: 6.00 Build 0)  -->
<svg version="1.1" id="Layer_1" xmlns="http://www.w3.org/2000/svg" xmlns:xlink="http://www.w3.org/1999/xlink" x="0px" y="0px"
	 viewBox="0 0 115.8 50.9" style="enable-background:new 0 0 115.8 50.9;" xml:space="preserve">
<style type="text/css">
	.st0{fill:#3D4656;}
	.st1{fill:none;stroke:#000000;stroke-width:1.3;stroke-miterlimit:10;}
	.st2{fill:none;stroke:#000000;stroke-width:1.5;stroke-miterlimit:10;}
	.st3{fill:none;stroke:#000000;stroke-width:1.5;stroke-linecap:round;stroke-miterlimit:10;}
	.st4{stroke:#000000;stroke-width:0.25;stroke-miterlimit:10;}
	.st5{stroke:#000000;stroke-width:0.5;stroke-miterlimit:10;}
</style>
<g>
	<g>
		<path class="st5" d="M17.9,32.2c0.2,3,1.2,5.4,3,7.1c1.8,1.8,4.2,2.7,7.2,2.7c2.6,0,4.9-0.7,6.7-2c2-1.5,3.1-3.5,3.1-6
			c0-2.6-1.1-4.6-3.2-6c-1.1-0.7-3.3-1.5-6.9-2.5c0,0-0.2-0.1-0.6-0.2c-4-1.1-6.5-2.2-7.5-3.1c-1.6-1.5-2.4-3.4-2.4-5.7
			c0-2.9,1-5.2,3.1-6.7c1.9-1.5,4.3-2.2,7.3-2.2c3.2,0,5.8,0.9,7.7,2.6c2,1.8,3.1,4.2,3.2,7.5H37c-0.1-2.8-1-4.9-2.8-6.5
			c-1.8-1.5-4-2.2-6.7-2.2c-2.5,0-4.6,0.6-6.2,1.9c-1.7,1.3-2.5,3.2-2.5,5.7c0,1.8,0.7,3.3,2.1,4.6c1.1,1,3.3,1.9,6.8,2.8
			c0.1,0,0.1,0.1,0.3,0.1c0.1,0,0.2,0.1,0.4,0.1c3.7,1,6.2,1.9,7.5,2.8c2.4,1.6,3.6,3.8,3.6,6.6c0,3.2-1.1,5.7-3.4,7.5
			c-2.1,1.6-4.7,2.4-8,2.4c-3.5,0-6.2-1-8.3-3c-2.1-1.9-3.2-4.7-3.4-8.2H17.9z"/>
		<path class="st5" d="M42.2,17.8h1.6l7.1,22.5l5.9-17.3h1.4l6.1,17.3l7.2-22.5h1.5L65,42.6h-1.5l-6-17l-5.8,17h-1.5L42.2,17.8z"/>
		<path class="st5" d="M80.2,39.5V41h-4.6v-1.5H80.2z M77,17.8h1.5v18.5H77V17.8z M78.9,12.9c0,0.6-0.5,1.1-1.1,1.1
			s-1.1-0.5-1.1-1.1c0-0.6,0.5-1.1,1.1-1.1S78.9,12.3,78.9,12.9z"/>
		<path class="st5" d="M85.2,17.8h1.5v4.1c1.3-2.7,4-4,8.2-4l-1,1.3c-1.2,0-2,0.1-2.5,0.3c-1.1,0.3-2.2,1.1-3.3,2.4
			c-0.9,1.1-1.4,2.5-1.4,4.2v16.5h-1.5V17.8z"/>
		<path class="st5" d="M97.9,8.3h1.5v34.3h-1.5V8.3z"/>
	</g>
</g>
</svg>
